<svg width="21" height="21" viewBox="0 0 21 21" fill="none" xmlns="http://www.w3.org/2000/svg">
<path d="M8.53516 1.88477C8.08594 2.33398 8.13086 3.00781 8.53516 3.45703L13.9707 8.57812H1.07812C0.449219 8.57812 0 9.07227 0 9.65625V11.0938C0 11.7227 0.449219 12.1719 1.07812 12.1719H13.9707L8.53516 17.3379C8.13086 17.7871 8.13086 18.4609 8.53516 18.9102L9.52344 19.8984C9.97266 20.3027 10.6465 20.3027 11.0508 19.8984L19.8105 11.1387C20.2148 10.7344 20.2148 10.0605 19.8105 9.61133L11.0508 0.896484C10.6465 0.492188 9.97266 0.492188 9.52344 0.896484L8.53516 1.88477Z" fill="white"/>
</svg>
